<svg width="221" height="45" viewBox="0 0 221 45" fill="none" xmlns="http://www.w3.org/2000/svg">
<path fill-rule="evenodd" clip-rule="evenodd" d="M35.4089 9.87803C37.1591 9.92721 38.6209 11.3618 38.6209 13.1127C38.6209 13.7634 38.5014 14.4347 38.2769 15.1039C42.1947 15.6095 45.2215 18.958 45.2215 23.0135C45.2215 24.1862 44.9684 25.2998 44.5138 26.3027C47.929 27.2049 50.4469 30.3156 50.4469 34.0144C50.4469 38.4192 46.8761 41.9901 42.4713 41.9901H13.869C9.46413 41.9901 5.89331 38.4192 5.89331 34.0144C5.89331 30.3156 8.41117 27.2049 11.8264 26.3027C11.3718 25.2998 11.1187 24.1862 11.1187 23.0135C11.1187 19.0437 14.0189 15.7514 17.8161 15.1397C17.3976 13.9928 17.1692 12.7543 17.1692 11.4625C17.1692 5.5388 21.9713 0.736664 27.8951 0.736664C28.2497 0.736664 28.3895 1.20548 28.146 1.4633C27.3085 2.34998 26.795 3.54602 26.795 4.862C26.795 7.59603 29.0114 9.8124 31.7454 9.8124C33.0005 9.8124 34.2437 9.84529 35.4089 9.87803Z" fill="url(#paint0_linear_361_381)"/>
<path d="M22.0472 26.9631C21.5004 26.877 21.0159 26.7431 20.5938 26.5613C20.4003 26.4716 20.1286 26.3026 19.8677 26.1316C19.4738 25.8733 19.3668 25.3317 19.6262 24.9385L19.6642 24.8808C19.8992 24.5246 20.4054 24.3825 20.7664 24.6098V24.6098C20.9583 24.7151 21.1646 24.8203 21.3852 24.9255C21.6155 25.0307 21.8505 25.1264 22.0904 25.2125C22.3398 25.289 22.5653 25.3273 22.7667 25.3273C23.1313 25.3273 23.3951 25.2508 23.5582 25.0977C23.7213 24.9446 23.8029 24.7581 23.8029 24.5381C23.8029 24.2607 23.6878 24.055 23.4575 23.9211C23.2273 23.7872 22.8963 23.6389 22.4645 23.4763C21.6395 23.1702 21.0111 22.8019 20.5794 22.3714C20.1476 21.9314 19.9318 21.3574 19.9318 20.6495C19.9318 20.3625 19.9845 20.0995 20.0901 19.8603C20.1956 19.6212 20.3443 19.4059 20.5362 19.2146C20.7281 19.0137 20.9487 18.8463 21.1982 18.7124C21.4572 18.5785 21.7402 18.478 22.0472 18.4111V17.8572C22.0472 17.3525 22.4563 16.9434 22.961 16.9434V16.9434C23.4657 16.9434 23.8748 17.3525 23.8748 17.8572V18.3824C24.3833 18.4589 24.839 18.5785 25.2419 18.7411C25.3829 18.7967 25.5476 18.8845 25.7133 18.9826C26.161 19.2476 26.2547 19.8583 25.942 20.2741L25.8622 20.3803C25.6477 20.6653 25.2878 20.7082 24.9685 20.5491V20.5491C24.8054 20.4534 24.6279 20.3673 24.4361 20.2908C24.2442 20.2143 24.0475 20.1521 23.8461 20.1043C23.6446 20.0469 23.4479 20.0182 23.256 20.0182C22.9778 20.0182 22.762 20.066 22.6085 20.1616C22.4645 20.2477 22.3926 20.3864 22.3926 20.5778C22.3926 20.8074 22.5221 21.0082 22.7811 21.1804C23.0402 21.343 23.4719 21.5392 24.0763 21.7687C24.8342 22.0653 25.3859 22.4192 25.7312 22.8306C26.0862 23.2419 26.2637 23.7728 26.2637 24.4233C26.2637 24.7103 26.2109 24.9925 26.1054 25.2699C25.9999 25.5473 25.8464 25.8008 25.6449 26.0304C25.4434 26.26 25.194 26.4609 24.8966 26.633C24.5992 26.7957 24.2586 26.9105 23.8748 26.9774V27.8162C23.8748 28.3209 23.4657 28.73 22.961 28.73V28.73C22.4563 28.73 22.0472 28.3209 22.0472 27.8162V26.9631Z" fill="black"/>
<path d="M32.3606 26.9631C31.8137 26.877 31.3292 26.7431 30.9071 26.5613C30.7137 26.4716 30.4419 26.3026 30.1811 26.1316C29.7872 25.8733 29.6801 25.3317 29.9395 24.9385L29.9776 24.8808C30.2125 24.5246 30.7188 24.3825 31.0798 24.6098V24.6098C31.2717 24.7151 31.4779 24.8203 31.6986 24.9255C31.9288 25.0307 32.1639 25.1264 32.4037 25.2125C32.6532 25.289 32.8786 25.3273 33.0801 25.3273C33.4447 25.3273 33.7085 25.2508 33.8716 25.0977C34.0347 24.9446 34.1162 24.7581 34.1162 24.5381C34.1162 24.2607 34.0011 24.055 33.7709 23.9211C33.5406 23.7872 33.2096 23.6389 32.7779 23.4763C31.9528 23.1702 31.3244 22.8019 30.8927 22.3714C30.461 21.9314 30.2451 21.3574 30.2451 20.6495C30.2451 20.3625 30.2979 20.0995 30.4034 19.8603C30.509 19.6212 30.6577 19.4059 30.8495 19.2146C31.0414 19.0137 31.2621 18.8463 31.5115 18.7124C31.7705 18.5785 32.0536 18.478 32.3606 18.4111V17.8572C32.3606 17.3525 32.7697 16.9434 33.2744 16.9434V16.9434C33.7791 16.9434 34.1882 17.3525 34.1882 17.8572V18.3824C34.6967 18.4589 35.1524 18.5785 35.5553 18.7411C35.6962 18.7967 35.8609 18.8845 36.0266 18.9826C36.4744 19.2476 36.5681 19.8583 36.2553 20.2741L36.1755 20.3803C35.9611 20.6653 35.6011 20.7082 35.2819 20.5491V20.5491C35.1188 20.4534 34.9413 20.3673 34.7494 20.2908C34.5575 20.2143 34.3609 20.1521 34.1594 20.1043C33.9579 20.0469 33.7613 20.0182 33.5694 20.0182C33.2912 20.0182 33.0753 20.066 32.9218 20.1616C32.7779 20.2477 32.7059 20.3864 32.7059 20.5778C32.7059 20.8074 32.8355 21.0082 33.0945 21.1804C33.3535 21.343 33.7852 21.5392 34.3897 21.7687C35.1476 22.0653 35.6992 22.4192 36.0446 22.8306C36.3996 23.2419 36.577 23.7728 36.577 24.4233C36.577 24.7103 36.5243 24.9925 36.4187 25.2699C36.3132 25.5473 36.1597 25.8008 35.9582 26.0304C35.7568 26.26 35.5073 26.4609 35.2099 26.633C34.9125 26.7957 34.5719 26.9105 34.1882 26.9774V27.8162C34.1882 28.3209 33.7791 28.73 33.2744 28.73V28.73C32.7697 28.73 32.3606 28.3209 32.3606 27.8162V26.9631Z" fill="black"/>
<path d="M22.1 32.6953C22.1 31.8931 22.6758 31.2067 23.4658 31.0673L23.6635 31.0324C26.7716 30.4839 29.9517 30.4839 33.0598 31.0324L33.2575 31.0673C34.0474 31.2067 34.6233 31.8931 34.6233 32.6953V33.5183C34.6233 36.9766 31.8199 39.78 28.3616 39.78V39.78C24.9034 39.78 22.1 36.9766 22.1 33.5183V32.6953Z" fill="black"/>
<path d="M77.8033 39.472C77.1173 39.7969 76.4038 40.1218 75.6628 40.4467C74.9493 40.7445 74.181 41.0153 73.3577 41.259C72.5344 41.4756 71.6288 41.6516 70.6409 41.7869C69.6804 41.9223 68.6239 41.99 67.4713 41.99C63.794 41.99 60.9538 41.1777 58.9505 39.5532C56.9746 37.9287 55.9867 35.2212 55.9867 31.4307C55.9867 29.2377 56.3297 27.18 57.0158 25.2576C57.7018 23.3082 58.7172 21.616 60.0619 20.1811C61.4066 18.719 63.0668 17.5683 65.0427 16.729C67.0185 15.8897 69.2825 15.47 71.8346 15.47C73.0421 15.47 74.1398 15.5512 75.1277 15.7137C76.1431 15.8761 77.0487 16.0927 77.8445 16.3635C78.6678 16.6072 79.395 16.8779 80.0262 17.1757C80.6848 17.4736 81.2748 17.7578 81.7962 18.0286L80.3143 25.5825H72.9049C72.9323 25.3118 72.9598 24.9598 72.9872 24.5266C73.0421 24.0934 73.0833 23.6602 73.1107 23.227C73.1382 22.7667 73.1656 22.32 73.193 21.8868C73.2205 21.4536 73.2342 21.0881 73.2342 20.7902C73.2342 20.5736 73.2205 20.33 73.193 20.0592C73.1656 19.7614 73.097 19.4771 72.9872 19.2064C72.8774 18.9356 72.6991 18.719 72.4521 18.5566C72.2326 18.367 71.9307 18.2723 71.5465 18.2723C70.833 18.2723 70.1744 18.5701 69.5706 19.1657C68.9944 19.7343 68.473 20.506 68.0064 21.4807C67.5399 22.4283 67.1283 23.5113 66.7715 24.7297C66.4148 25.948 66.1129 27.1935 65.8659 28.466C65.6464 29.7115 65.468 30.9434 65.3308 32.1618C65.221 33.3801 65.1662 34.4496 65.1662 35.3702C65.1662 35.6409 65.1799 35.9793 65.2073 36.3855C65.2348 36.7916 65.3171 37.1842 65.4543 37.5632C65.5915 37.9423 65.7973 38.2672 66.0718 38.5379C66.3736 38.8087 66.7715 38.9441 67.2655 38.9441C68.1162 38.9441 68.9395 38.4296 69.7353 37.4008C70.5311 36.3449 71.2309 34.4767 71.8346 31.7962H79.4499L77.8033 39.472Z" fill="url(#paint1_linear_361_381)"/>
<path d="M107.757 22.0086C107.757 23.6061 107.304 25.0816 106.398 26.4354C105.493 27.7891 103.997 28.818 101.912 29.5219L106.687 41.6651H97.5072L93.8848 30.4154H93.432L91.0033 41.6651H82.112L87.6691 15.8761H98.4951C99.7574 15.8761 100.951 15.9574 102.076 16.1198C103.201 16.2552 104.176 16.553 104.999 17.0133C105.85 17.4465 106.522 18.0692 107.016 18.8815C107.51 19.6666 107.757 20.709 107.757 22.0086ZM95.9018 27.8162C96.6153 27.8162 97.219 27.5861 97.713 27.1258C98.2344 26.6385 98.646 26.0563 98.9479 25.3795C99.2772 24.7026 99.5104 23.9851 99.6477 23.227C99.7849 22.4418 99.8535 21.7649 99.8535 21.1964C99.8535 20.4924 99.73 19.8968 99.483 19.4094C99.236 18.895 98.7009 18.6378 97.8776 18.6378H96.0253L93.9671 27.8162H95.9018Z" fill="url(#paint2_linear_361_381)"/>
<path d="M132.2 41.6651H122.568L121.992 35.2077H114.376L111.454 41.6651H107.461L119.604 15.8761H129.36L132.2 41.6651ZM115.735 32.243H121.704L120.757 21.1964L115.735 32.243Z" fill="url(#paint3_linear_361_381)"/>
<path d="M148.606 30.5373C149.43 30.5373 150.116 30.1988 150.665 29.5219C151.241 28.8451 151.707 28.0193 152.064 27.0446C152.448 26.0699 152.723 25.0546 152.887 23.9986C153.052 22.9427 153.134 22.0222 153.134 21.237C153.134 20.506 153.011 19.8968 152.764 19.4094C152.517 18.895 151.982 18.6378 151.159 18.6378H149.306L146.713 30.5373H148.606ZM146.137 33.1365L144.284 41.6651H135.393L140.95 15.8761H150.459C152.023 15.8761 153.45 15.9574 154.74 16.1198C156.03 16.2823 157.141 16.6072 158.074 17.0945C159.007 17.5819 159.734 18.2858 160.256 19.2064C160.777 20.0998 161.038 21.3047 161.038 22.8209C161.038 24.2288 160.805 25.569 160.338 26.8415C159.899 28.087 159.172 29.1835 158.156 30.1311C157.168 31.0517 155.879 31.7827 154.287 32.3242C152.695 32.8657 150.761 33.1365 148.483 33.1365H146.137Z" fill="url(#paint4_linear_361_381)"/>
<path d="M186.017 18.9627H179.389L174.491 41.6651H165.6L170.498 18.9627H163.953L164.694 15.8761H186.716L186.017 18.9627Z" fill="url(#paint5_linear_361_381)"/>
<path d="M201.211 15.47C203.571 15.47 205.478 15.7678 206.932 16.3635C208.414 16.9591 209.58 17.8797 210.431 19.1251C210.98 19.9645 211.405 20.9121 211.707 21.968C212.009 23.0239 212.16 24.2423 212.16 25.6231C212.16 26.8144 212.05 28.0057 211.831 29.197C211.611 30.3883 211.296 31.539 210.884 32.6491C210.5 33.7321 210.02 34.761 209.443 35.7357C208.894 36.6833 208.277 37.5226 207.591 38.2536C206.301 39.6345 204.805 40.6092 203.104 41.1777C201.43 41.7193 199.358 41.99 196.888 41.99C194.501 41.99 192.58 41.7463 191.125 41.259C189.671 40.7716 188.518 39.9864 187.668 38.9034C187.064 38.1453 186.584 37.1842 186.227 36.02C185.898 34.8557 185.733 33.3937 185.733 31.6338C185.733 28.6285 186.268 25.948 187.338 23.5925C188.436 21.2099 189.987 19.3282 191.99 17.9474C193.197 17.108 194.542 16.4853 196.024 16.0792C197.506 15.6731 199.235 15.47 201.211 15.47ZM196.559 39.1471C197.19 39.1471 197.78 38.8764 198.329 38.3349C198.905 37.7663 199.427 37.0217 199.893 36.1012C200.387 35.1536 200.826 34.0841 201.211 32.8928C201.622 31.7015 201.965 30.4696 202.24 29.197C202.514 27.9245 202.72 26.6655 202.857 25.4201C203.022 24.1476 203.104 22.9969 203.104 21.968C203.104 20.5601 202.953 19.5989 202.651 19.0845C202.377 18.543 201.965 18.2723 201.416 18.2723C200.785 18.2723 200.181 18.543 199.605 19.0845C199.029 19.626 198.48 20.357 197.959 21.2776C197.465 22.1711 197.012 23.2135 196.6 24.4048C196.216 25.569 195.873 26.7738 195.571 28.0193C195.297 29.2647 195.077 30.4966 194.913 31.715C194.775 32.9334 194.707 34.057 194.707 35.0859C194.707 36.6291 194.871 37.6986 195.201 38.2943C195.557 38.8628 196.01 39.1471 196.559 39.1471Z" fill="url(#paint6_linear_361_381)"/>
<defs>
<linearGradient id="paint0_linear_361_381" x1="36.5" y1="1" x2="16" y2="45.5" gradientUnits="userSpaceOnUse">
<stop stop-color="#85EEFF"/>
<stop offset="0.494792" stop-color="#D57BFF"/>
<stop offset="1" stop-color="#FF7577"/>
</linearGradient>
<linearGradient id="paint1_linear_361_381" x1="135.5" y1="9.5" x2="127.5" y2="55" gradientUnits="userSpaceOnUse">
<stop stop-color="#85EEFF"/>
<stop offset="0.494792" stop-color="#D57BFF"/>
<stop offset="1" stop-color="#FF7577"/>
</linearGradient>
<linearGradient id="paint2_linear_361_381" x1="135.5" y1="9.5" x2="127.5" y2="55" gradientUnits="userSpaceOnUse">
<stop stop-color="#85EEFF"/>
<stop offset="0.494792" stop-color="#D57BFF"/>
<stop offset="1" stop-color="#FF7577"/>
</linearGradient>
<linearGradient id="paint3_linear_361_381" x1="135.5" y1="9.5" x2="127.5" y2="55" gradientUnits="userSpaceOnUse">
<stop stop-color="#85EEFF"/>
<stop offset="0.494792" stop-color="#D57BFF"/>
<stop offset="1" stop-color="#FF7577"/>
</linearGradient>
<linearGradient id="paint4_linear_361_381" x1="135.5" y1="9.5" x2="127.5" y2="55" gradientUnits="userSpaceOnUse">
<stop stop-color="#85EEFF"/>
<stop offset="0.494792" stop-color="#D57BFF"/>
<stop offset="1" stop-color="#FF7577"/>
</linearGradient>
<linearGradient id="paint5_linear_361_381" x1="135.5" y1="9.5" x2="127.5" y2="55" gradientUnits="userSpaceOnUse">
<stop stop-color="#85EEFF"/>
<stop offset="0.494792" stop-color="#D57BFF"/>
<stop offset="1" stop-color="#FF7577"/>
</linearGradient>
<linearGradient id="paint6_linear_361_381" x1="135.5" y1="9.5" x2="127.5" y2="55" gradientUnits="userSpaceOnUse">
<stop stop-color="#85EEFF"/>
<stop offset="0.494792" stop-color="#D57BFF"/>
<stop offset="1" stop-color="#FF7577"/>
</linearGradient>
</defs>
</svg>
