<svg width="56" height="44" viewBox="0 0 56 44" fill="none" xmlns="http://www.w3.org/2000/svg">
<path fill-rule="evenodd" clip-rule="evenodd" d="M35.4089 9.87806C37.1591 9.92724 38.6209 11.3618 38.6209 13.1127C38.6209 13.7634 38.5014 14.4347 38.2769 15.1039C42.1947 15.6096 45.2215 18.9581 45.2215 23.0135C45.2215 24.1862 44.9684 25.2999 44.5138 26.3027C47.929 27.2049 50.4469 30.3156 50.4469 34.0144C50.4469 38.4193 46.8761 41.9901 42.4713 41.9901H13.869C9.46413 41.9901 5.89331 38.4193 5.89331 34.0144C5.89331 30.3156 8.41117 27.2049 11.8264 26.3027C11.3718 25.2999 11.1187 24.1862 11.1187 23.0135C11.1187 19.0438 14.0189 15.7514 17.8161 15.1397C17.3976 13.9928 17.1692 12.7543 17.1692 11.4626C17.1692 5.53883 21.9713 0.736694 27.8951 0.736694C28.2497 0.736694 28.3895 1.20551 28.146 1.46333C27.3085 2.35001 26.795 3.54605 26.795 4.86203C26.795 7.59606 29.0114 9.81243 31.7454 9.81243C33.0005 9.81243 34.2437 9.84532 35.4089 9.87806Z" fill="url(#paint0_linear_361_400)"/>
<path d="M22.0472 26.9631C21.5004 26.877 21.0159 26.7431 20.5938 26.5613C20.4003 26.4716 20.1286 26.3026 19.8677 26.1316C19.4738 25.8733 19.3668 25.3317 19.6262 24.9385L19.6642 24.8808C19.8992 24.5246 20.4054 24.3825 20.7664 24.6098V24.6098C20.9583 24.7151 21.1646 24.8203 21.3852 24.9255C21.6155 25.0307 21.8505 25.1264 22.0904 25.2125C22.3398 25.289 22.5653 25.3273 22.7667 25.3273C23.1313 25.3273 23.3951 25.2508 23.5582 25.0977C23.7213 24.9446 23.8029 24.7581 23.8029 24.5381C23.8029 24.2607 23.6878 24.055 23.4575 23.9211C23.2273 23.7872 22.8963 23.6389 22.4645 23.4763C21.6395 23.1702 21.0111 22.8019 20.5794 22.3714C20.1476 21.9314 19.9318 21.3574 19.9318 20.6495C19.9318 20.3625 19.9845 20.0995 20.0901 19.8603C20.1956 19.6212 20.3443 19.4059 20.5362 19.2146C20.7281 19.0137 20.9487 18.8463 21.1982 18.7124C21.4572 18.5785 21.7402 18.478 22.0472 18.4111V17.8572C22.0472 17.3525 22.4563 16.9434 22.961 16.9434V16.9434C23.4657 16.9434 23.8748 17.3525 23.8748 17.8572V18.3824C24.3833 18.4589 24.839 18.5785 25.2419 18.7411C25.3829 18.7967 25.5476 18.8845 25.7133 18.9826C26.161 19.2476 26.2547 19.8583 25.942 20.2741L25.8622 20.3803C25.6477 20.6653 25.2878 20.7082 24.9685 20.5491V20.5491C24.8054 20.4534 24.6279 20.3673 24.4361 20.2908C24.2442 20.2143 24.0475 20.1521 23.8461 20.1043C23.6446 20.0469 23.4479 20.0182 23.256 20.0182C22.9778 20.0182 22.762 20.066 22.6085 20.1616C22.4645 20.2477 22.3926 20.3864 22.3926 20.5778C22.3926 20.8074 22.5221 21.0082 22.7811 21.1804C23.0402 21.343 23.4719 21.5392 24.0763 21.7687C24.8342 22.0653 25.3859 22.4192 25.7312 22.8306C26.0862 23.2419 26.2637 23.7728 26.2637 24.4233C26.2637 24.7103 26.2109 24.9925 26.1054 25.2699C25.9999 25.5473 25.8464 25.8008 25.6449 26.0304C25.4434 26.26 25.194 26.4609 24.8966 26.633C24.5992 26.7957 24.2586 26.9105 23.8748 26.9774V27.8162C23.8748 28.3209 23.4657 28.73 22.961 28.73V28.73C22.4563 28.73 22.0472 28.3209 22.0472 27.8162V26.9631Z" fill="black"/>
<path d="M32.3606 26.9631C31.8137 26.877 31.3292 26.7431 30.9071 26.5613C30.7137 26.4716 30.4419 26.3026 30.1811 26.1316C29.7872 25.8733 29.6801 25.3317 29.9395 24.9385L29.9776 24.8808C30.2125 24.5246 30.7188 24.3825 31.0798 24.6098V24.6098C31.2717 24.7151 31.4779 24.8203 31.6986 24.9255C31.9288 25.0307 32.1639 25.1264 32.4037 25.2125C32.6532 25.289 32.8786 25.3273 33.0801 25.3273C33.4447 25.3273 33.7085 25.2508 33.8716 25.0977C34.0347 24.9446 34.1162 24.7581 34.1162 24.5381C34.1162 24.2607 34.0011 24.055 33.7709 23.9211C33.5406 23.7872 33.2096 23.6389 32.7779 23.4763C31.9528 23.1702 31.3244 22.8019 30.8927 22.3714C30.461 21.9314 30.2451 21.3574 30.2451 20.6495C30.2451 20.3625 30.2979 20.0995 30.4034 19.8603C30.509 19.6212 30.6577 19.4059 30.8495 19.2146C31.0414 19.0137 31.2621 18.8463 31.5115 18.7124C31.7705 18.5785 32.0536 18.478 32.3606 18.4111V17.8572C32.3606 17.3525 32.7697 16.9434 33.2744 16.9434V16.9434C33.7791 16.9434 34.1882 17.3525 34.1882 17.8572V18.3824C34.6967 18.4589 35.1524 18.5785 35.5553 18.7411C35.6962 18.7967 35.8609 18.8845 36.0266 18.9826C36.4744 19.2476 36.5681 19.8583 36.2553 20.2741L36.1755 20.3803C35.9611 20.6653 35.6011 20.7082 35.2819 20.5491V20.5491C35.1188 20.4534 34.9413 20.3673 34.7494 20.2908C34.5575 20.2143 34.3609 20.1521 34.1594 20.1043C33.9579 20.0469 33.7613 20.0182 33.5694 20.0182C33.2912 20.0182 33.0753 20.066 32.9218 20.1616C32.7779 20.2477 32.7059 20.3864 32.7059 20.5778C32.7059 20.8074 32.8355 21.0082 33.0945 21.1804C33.3535 21.343 33.7852 21.5392 34.3897 21.7687C35.1476 22.0653 35.6992 22.4192 36.0446 22.8306C36.3996 23.2419 36.577 23.7728 36.577 24.4233C36.577 24.7103 36.5243 24.9925 36.4187 25.2699C36.3132 25.5473 36.1597 25.8008 35.9582 26.0304C35.7568 26.26 35.5073 26.4609 35.2099 26.633C34.9125 26.7957 34.5719 26.9105 34.1882 26.9774V27.8162C34.1882 28.3209 33.7791 28.73 33.2744 28.73V28.73C32.7697 28.73 32.3606 28.3209 32.3606 27.8162V26.9631Z" fill="black"/>
<path d="M22.1 32.6953C22.1 31.8931 22.6758 31.2067 23.4658 31.0673L23.6635 31.0325C26.7716 30.484 29.9517 30.484 33.0598 31.0325L33.2575 31.0673C34.0474 31.2067 34.6233 31.8931 34.6233 32.6953V33.5184C34.6233 36.9766 31.8199 39.78 28.3616 39.78V39.78C24.9034 39.78 22.1 36.9766 22.1 33.5184V32.6953Z" fill="black"/>
<defs>
<linearGradient id="paint0_linear_361_400" x1="36.5" y1="1.00003" x2="16" y2="45.5" gradientUnits="userSpaceOnUse">
<stop stop-color="#85EEFF"/>
<stop offset="0.494792" stop-color="#D57BFF"/>
<stop offset="1" stop-color="#FF7577"/>
</linearGradient>
</defs>
</svg>
